<svg width="500" height="500" viewBox="0 0 500 500" fill="none" xmlns="http://www.w3.org/2000/svg">
<mask id="mask0_3_4" style="mask-type:alpha" maskUnits="userSpaceOnUse" x="99" y="94" width="248" height="333">
<path d="M346.5 95H99.5V426H346.5V95Z" fill="white" stroke="black"/>
</mask>
<g mask="url(#mask0_3_4)">
<rect y="95" width="470" height="66" fill="#FFE17F"/>
<rect x="-12" y="161" width="482" height="311" fill="#FFCF30"/>
</g>
<path d="M100 79.5C100 79.5 100 326.856 100 378.175C100 429.494 100 429.494 144.087 429.494C188.173 429.494 256.048 429.494 300.134 429.494C344.221 429.494 344.221 429.494 344.221 378.175C344.221 326.856 344.221 351.117 344.221 351.117M344.221 351.117C344.221 351.117 344.221 322.795 372.29 322.795C400.36 322.795 400.36 322.795 400.36 297.459C400.36 272.122 400.36 272.122 400.36 272.122V230V198.5C400.36 198.5 400.36 208.836 400.36 183.5C400.36 158.164 400.36 145.44 372.29 145.44C344.221 145.44 344.221 145.44 344.221 145.44M344.221 351.117V145.44M344.221 145.44V79.5" stroke="white" stroke-width="40" stroke-linecap="round"/>
<circle cx="171" cy="351" r="9" fill="#FFE17F"/>
<circle cx="266.5" cy="230.5" r="5.5" fill="#FFE17F"/>
<circle cx="287" cy="321" r="3" fill="#FFE17F"/>
<circle cx="189" cy="198" r="3" fill="#FFE17F"/>
</svg>
